<?xml version="1.0" standalone="no"?>
<!DOCTYPE svg PUBLIC "-//W3C//DTD SVG 20010904//EN"
 "http://www.w3.org/TR/2001/REC-SVG-20010904/DTD/svg10.dtd">
<svg version="1.0" xmlns="http://www.w3.org/2000/svg"
 width="500.000000pt" height="500.000000pt" viewBox="0 0 500.000000 500.000000"
 preserveAspectRatio="xMidYMid meet">
<metadata>
Created by potrace 1.14, written by Peter Selinger 2001-2017
</metadata>
<g transform="translate(0.000000,500.000000) scale(0.100000,-0.100000)"
fill="#000000" stroke="none">
<path d="M1220 4584 c-168 -36 -282 -87 -430 -191 -35 -25 -139 -130 -181
-183 -69 -86 -155 -258 -175 -347 -33 -151 -33 -157 -33 -1368 0 -1123 1
-1205 18 -1285 30 -138 65 -227 135 -340 22 -36 45 -70 51 -76 5 -6 30 -35 55
-64 41 -47 146 -138 195 -167 130 -78 220 -115 347 -142 90 -19 138 -20 1318
-17 674 1 1239 5 1255 9 17 5 55 14 86 22 103 27 239 92 328 158 190 140 321
337 384 576 l22 86 0 1250 0 1250 -23 80 c-38 134 -79 226 -141 320 -40 61
-51 74 -121 145 -134 136 -267 214 -470 272 -75 22 -75 22 -1315 24 -1031 2
-1251 0 -1305 -12z m1743 -898 c59 -21 100 -54 140 -112 20 -29 37 -55 37 -58
0 -3 16 -30 35 -60 19 -30 35 -60 35 -66 0 -5 5 -10 10 -10 6 0 10 -6 11 -12
1 -24 74 -122 108 -145 33 -23 38 -23 333 -23 353 0 368 -3 412 -87 14 -29 16
-115 16 -863 0 -806 -1 -832 -20 -869 -13 -27 -33 -46 -63 -60 l-44 -21 -1489
2 c-1457 3 -1490 3 -1515 22 -14 11 -34 31 -45 45 -18 25 -19 50 -19 881 0
940 -4 871 60 922 29 23 35 23 350 28 216 3 327 9 340 17 35 20 60 55 158 219
108 180 130 207 202 240 l50 24 430 -1 c335 0 438 -3 468 -13z m-1520 -97 c38
-17 57 -60 57 -128 l0 -61 -200 0 -200 0 0 61 c0 66 19 110 54 128 28 13 259
14 289 0z"/>
<path d="M3348 3033 c-65 -40 -61 -140 7 -171 51 -23 107 -7 131 39 18 37 18
65 -3 99 -29 49 -86 63 -135 33z"/>
<path d="M2375 2989 c-98 -19 -112 -23 -185 -57 -209 -95 -366 -288 -420 -515
-18 -79 -22 -254 -7 -312 3 -11 8 -33 12 -50 14 -57 57 -150 100 -215 111
-169 278 -283 478 -324 241 -50 495 27 676 205 57 56 127 157 156 224 100 233
79 503 -54 710 -111 171 -300 297 -501 333 -63 12 -196 12 -255 1z m250 -203
c83 -17 187 -76 260 -150 118 -119 167 -244 161 -411 -17 -410 -465 -654 -825
-449 -61 35 -169 147 -205 213 -59 110 -81 272 -51 386 36 140 134 275 250
344 113 68 271 94 410 67z"/>
</g>
</svg>
